<mxfile host="Electron" modified="2024-02-29T10:31:43.394Z" agent="Mozilla/5.0 (Macintosh; Intel Mac OS X 10_15_7) AppleWebKit/537.36 (KHTML, like Gecko) draw.io/23.1.5 Chrome/120.0.6099.109 Electron/28.1.0 Safari/537.36" etag="oJo2T_JR4EfNpFkNFeja" version="23.1.5" type="device">
  <diagram name="Page-1" id="M0N3GZI8mdQhHKP4HbHw">
    <mxGraphModel dx="2411" dy="793" grid="1" gridSize="10" guides="1" tooltips="1" connect="1" arrows="1" fold="1" page="1" pageScale="1" pageWidth="1169" pageHeight="827" math="0" shadow="0">
      <root>
        <mxCell id="0" />
        <mxCell id="1" parent="0" />
        <mxCell id="COsfoFzEx6H1PLmdCbzJ-101" value="" style="sketch=0;pointerEvents=1;shadow=0;dashed=0;html=1;strokeColor=none;fillColor=#808080;aspect=fixed;labelPosition=center;verticalLabelPosition=bottom;verticalAlign=top;align=center;outlineConnect=0;shape=mxgraph.vvd.web_browser;" vertex="1" parent="1">
          <mxGeometry x="-37" y="540" width="380.29" height="270" as="geometry" />
        </mxCell>
        <mxCell id="COsfoFzEx6H1PLmdCbzJ-102" value="" style="sketch=0;pointerEvents=1;shadow=0;dashed=0;html=1;strokeColor=none;fillColor=#808080;aspect=fixed;labelPosition=center;verticalLabelPosition=bottom;verticalAlign=top;align=center;outlineConnect=0;shape=mxgraph.vvd.phone;" vertex="1" parent="1">
          <mxGeometry x="650" y="610" width="106.2" height="180" as="geometry" />
        </mxCell>
        <mxCell id="COsfoFzEx6H1PLmdCbzJ-4" value="Ibexa DXP&lt;br&gt;OAuth 2 Server" style="rounded=1;whiteSpace=wrap;html=1;horizontal=1;verticalAlign=top;" vertex="1" parent="1">
          <mxGeometry x="960" y="50" width="120" height="180" as="geometry" />
        </mxCell>
        <mxCell id="COsfoFzEx6H1PLmdCbzJ-2" value="Authorization&lt;br&gt;Server" style="rounded=0;whiteSpace=wrap;html=1;" vertex="1" parent="1">
          <mxGeometry x="970" y="90" width="100" height="40" as="geometry" />
        </mxCell>
        <mxCell id="COsfoFzEx6H1PLmdCbzJ-3" value="Resource&lt;br&gt;Server" style="shape=cylinder3;whiteSpace=wrap;html=1;boundedLbl=1;backgroundOutline=1;size=15;" vertex="1" parent="1">
          <mxGeometry x="980" y="140" width="80" height="80" as="geometry" />
        </mxCell>
        <mxCell id="COsfoFzEx6H1PLmdCbzJ-8" value="3rd party&lt;br&gt;OAuth 2 Client" style="rounded=0;whiteSpace=wrap;html=1;" vertex="1" parent="1">
          <mxGeometry x="660" y="110" width="80" height="60" as="geometry" />
        </mxCell>
        <mxCell id="COsfoFzEx6H1PLmdCbzJ-11" value="" style="endArrow=classic;html=1;rounded=0;exitX=1;exitY=0.25;exitDx=0;exitDy=0;entryX=0;entryY=0.25;entryDx=0;entryDy=0;curved=1;" edge="1" parent="1" source="COsfoFzEx6H1PLmdCbzJ-8" target="COsfoFzEx6H1PLmdCbzJ-2">
          <mxGeometry width="50" height="50" relative="1" as="geometry">
            <mxPoint x="680" y="20" as="sourcePoint" />
            <mxPoint x="730" y="-30" as="targetPoint" />
            <Array as="points">
              <mxPoint x="850" y="70" />
            </Array>
          </mxGeometry>
        </mxCell>
        <mxCell id="COsfoFzEx6H1PLmdCbzJ-12" value="Request token" style="text;html=1;align=center;verticalAlign=middle;whiteSpace=wrap;rounded=0;rotation=-5;" vertex="1" parent="1">
          <mxGeometry x="810" y="70" width="80" height="30" as="geometry" />
        </mxCell>
        <mxCell id="COsfoFzEx6H1PLmdCbzJ-21" value="" style="endArrow=classic;html=1;rounded=0;exitX=0;exitY=0.75;exitDx=0;exitDy=0;entryX=1.013;entryY=0.367;entryDx=0;entryDy=0;curved=1;entryPerimeter=0;" edge="1" parent="1" source="COsfoFzEx6H1PLmdCbzJ-2" target="COsfoFzEx6H1PLmdCbzJ-8">
          <mxGeometry width="50" height="50" relative="1" as="geometry">
            <mxPoint x="680" y="100" as="sourcePoint" />
            <mxPoint x="730" y="50" as="targetPoint" />
            <Array as="points">
              <mxPoint x="880" y="110" />
            </Array>
          </mxGeometry>
        </mxCell>
        <mxCell id="COsfoFzEx6H1PLmdCbzJ-22" value="Provide token" style="text;html=1;align=center;verticalAlign=middle;whiteSpace=wrap;rounded=0;rotation=-5;" vertex="1" parent="1">
          <mxGeometry x="815" y="95" width="80" height="30" as="geometry" />
        </mxCell>
        <mxCell id="COsfoFzEx6H1PLmdCbzJ-23" value="" style="endArrow=classic;html=1;rounded=0;exitX=1;exitY=0.617;exitDx=0;exitDy=0;entryX=0;entryY=0.5;entryDx=0;entryDy=0;entryPerimeter=0;curved=1;exitPerimeter=0;" edge="1" parent="1" source="COsfoFzEx6H1PLmdCbzJ-8" target="COsfoFzEx6H1PLmdCbzJ-3">
          <mxGeometry width="50" height="50" relative="1" as="geometry">
            <mxPoint x="680" y="100" as="sourcePoint" />
            <mxPoint x="940" y="220" as="targetPoint" />
            <Array as="points">
              <mxPoint x="860" y="150" />
            </Array>
          </mxGeometry>
        </mxCell>
        <mxCell id="COsfoFzEx6H1PLmdCbzJ-24" value="Request resource&lt;br&gt;with token" style="text;html=1;align=center;verticalAlign=middle;whiteSpace=wrap;rounded=0;rotation=10;" vertex="1" parent="1">
          <mxGeometry x="826" y="146" width="120" height="30" as="geometry" />
        </mxCell>
        <mxCell id="COsfoFzEx6H1PLmdCbzJ-26" value="" style="endArrow=classic;html=1;rounded=0;exitX=0;exitY=0;exitDx=0;exitDy=52.5;exitPerimeter=0;curved=1;" edge="1" parent="1" source="COsfoFzEx6H1PLmdCbzJ-3">
          <mxGeometry width="50" height="50" relative="1" as="geometry">
            <mxPoint x="680" y="100" as="sourcePoint" />
            <mxPoint x="740" y="155" as="targetPoint" />
            <Array as="points">
              <mxPoint x="860" y="220" />
            </Array>
          </mxGeometry>
        </mxCell>
        <mxCell id="COsfoFzEx6H1PLmdCbzJ-27" value="Provide resource to valid token" style="text;html=1;align=center;verticalAlign=middle;whiteSpace=wrap;rounded=0;rotation=10;" vertex="1" parent="1">
          <mxGeometry x="808" y="181" width="95" height="30" as="geometry" />
        </mxCell>
        <mxCell id="COsfoFzEx6H1PLmdCbzJ-28" value="Ibexa DXP&lt;br&gt;OAuth 2 Client" style="rounded=1;whiteSpace=wrap;html=1;horizontal=1;verticalAlign=top;" vertex="1" parent="1">
          <mxGeometry x="120" y="50" width="120" height="180" as="geometry" />
        </mxCell>
        <mxCell id="COsfoFzEx6H1PLmdCbzJ-29" value="Resource&lt;br&gt;Server" style="shape=cylinder3;whiteSpace=wrap;html=1;boundedLbl=1;backgroundOutline=1;size=15;" vertex="1" parent="1">
          <mxGeometry x="140" y="150" width="80" height="70" as="geometry" />
        </mxCell>
        <mxCell id="COsfoFzEx6H1PLmdCbzJ-30" value="Users&lt;br&gt;(Resource owners)" style="shape=cylinder3;whiteSpace=wrap;html=1;boundedLbl=1;backgroundOutline=1;size=15;" vertex="1" parent="1">
          <mxGeometry x="140" y="90" width="80" height="80" as="geometry" />
        </mxCell>
        <mxCell id="COsfoFzEx6H1PLmdCbzJ-32" value="3rd party&lt;br&gt;OAuth 2 Server" style="rounded=0;whiteSpace=wrap;html=1;" vertex="1" parent="1">
          <mxGeometry x="460" y="110" width="80" height="60" as="geometry" />
        </mxCell>
        <mxCell id="COsfoFzEx6H1PLmdCbzJ-36" value="Authenticate user" style="text;html=1;align=center;verticalAlign=middle;whiteSpace=wrap;rounded=0;" vertex="1" parent="1">
          <mxGeometry x="283" y="145" width="100" height="30" as="geometry" />
        </mxCell>
        <mxCell id="COsfoFzEx6H1PLmdCbzJ-37" value="Request user authentication" style="text;html=1;align=center;verticalAlign=middle;whiteSpace=wrap;rounded=0;rotation=10;" vertex="1" parent="1">
          <mxGeometry x="334" y="68" width="60" height="30" as="geometry" />
        </mxCell>
        <mxCell id="COsfoFzEx6H1PLmdCbzJ-38" value="&lt;p style=&quot;line-height: 180%;&quot;&gt;Load an internal user&lt;br&gt;Access resource&lt;/p&gt;" style="text;html=1;align=right;verticalAlign=middle;whiteSpace=wrap;rounded=0;" vertex="1" parent="1">
          <mxGeometry x="-30" y="148" width="150" height="30" as="geometry" />
        </mxCell>
        <mxCell id="COsfoFzEx6H1PLmdCbzJ-39" value="" style="endArrow=classic;startArrow=classic;html=1;rounded=0;entryX=1.025;entryY=0.588;entryDx=0;entryDy=0;entryPerimeter=0;exitX=1;exitY=0.5;exitDx=0;exitDy=0;curved=1;" edge="1" parent="1" source="COsfoFzEx6H1PLmdCbzJ-2" target="COsfoFzEx6H1PLmdCbzJ-3">
          <mxGeometry width="50" height="50" relative="1" as="geometry">
            <mxPoint x="680" y="100" as="sourcePoint" />
            <mxPoint x="730" y="50" as="targetPoint" />
            <Array as="points">
              <mxPoint x="1080" y="150" />
            </Array>
          </mxGeometry>
        </mxCell>
        <mxCell id="COsfoFzEx6H1PLmdCbzJ-40" value="Validate token" style="text;html=1;align=left;verticalAlign=middle;whiteSpace=wrap;rounded=0;" vertex="1" parent="1">
          <mxGeometry x="1080" y="130" width="80" height="30" as="geometry" />
        </mxCell>
        <mxCell id="COsfoFzEx6H1PLmdCbzJ-41" value="Ibexa DXP&lt;br&gt;OAuth 2 Server" style="rounded=1;whiteSpace=wrap;html=1;horizontal=1;verticalAlign=top;" vertex="1" parent="1">
          <mxGeometry x="960" y="290" width="120" height="180" as="geometry" />
        </mxCell>
        <mxCell id="COsfoFzEx6H1PLmdCbzJ-42" value="Authorization&lt;br&gt;Server" style="rounded=0;whiteSpace=wrap;html=1;" vertex="1" parent="1">
          <mxGeometry x="970" y="330" width="100" height="40" as="geometry" />
        </mxCell>
        <mxCell id="COsfoFzEx6H1PLmdCbzJ-43" value="Resource&lt;br&gt;Server" style="shape=cylinder3;whiteSpace=wrap;html=1;boundedLbl=1;backgroundOutline=1;size=15;" vertex="1" parent="1">
          <mxGeometry x="980" y="380" width="80" height="80" as="geometry" />
        </mxCell>
        <mxCell id="COsfoFzEx6H1PLmdCbzJ-44" value="3rd party&lt;br&gt;OAuth 2 Client" style="rounded=0;whiteSpace=wrap;html=1;" vertex="1" parent="1">
          <mxGeometry x="660" y="350" width="80" height="60" as="geometry" />
        </mxCell>
        <mxCell id="COsfoFzEx6H1PLmdCbzJ-46" value="Request token" style="text;html=1;align=center;verticalAlign=middle;whiteSpace=wrap;rounded=0;rotation=-15;" vertex="1" parent="1">
          <mxGeometry x="810" y="310" width="80" height="30" as="geometry" />
        </mxCell>
        <mxCell id="COsfoFzEx6H1PLmdCbzJ-48" value="Provide token" style="text;html=1;align=center;verticalAlign=middle;whiteSpace=wrap;rounded=0;rotation=-10;" vertex="1" parent="1">
          <mxGeometry x="818" y="340" width="80" height="30" as="geometry" />
        </mxCell>
        <mxCell id="COsfoFzEx6H1PLmdCbzJ-50" value="Request resource&lt;br&gt;with token" style="text;html=1;align=center;verticalAlign=middle;whiteSpace=wrap;rounded=0;rotation=10;" vertex="1" parent="1">
          <mxGeometry x="813" y="381" width="120" height="30" as="geometry" />
        </mxCell>
        <mxCell id="COsfoFzEx6H1PLmdCbzJ-52" value="Provide resource to valid token" style="text;html=1;align=center;verticalAlign=middle;whiteSpace=wrap;rounded=0;rotation=10;" vertex="1" parent="1">
          <mxGeometry x="814" y="423" width="95" height="30" as="geometry" />
        </mxCell>
        <mxCell id="COsfoFzEx6H1PLmdCbzJ-54" value="Validate token" style="text;html=1;align=left;verticalAlign=middle;whiteSpace=wrap;rounded=0;" vertex="1" parent="1">
          <mxGeometry x="960" y="790" width="80" height="30" as="geometry" />
        </mxCell>
        <mxCell id="COsfoFzEx6H1PLmdCbzJ-55" value="" style="curved=1;endArrow=classic;html=1;rounded=0;exitX=1;exitY=0.25;exitDx=0;exitDy=0;entryX=1;entryY=0.75;entryDx=0;entryDy=0;" edge="1" parent="1" source="COsfoFzEx6H1PLmdCbzJ-44" target="COsfoFzEx6H1PLmdCbzJ-44">
          <mxGeometry width="50" height="50" relative="1" as="geometry">
            <mxPoint x="680" y="200" as="sourcePoint" />
            <mxPoint x="930" y="330" as="targetPoint" />
            <Array as="points">
              <mxPoint x="900" y="310" />
              <mxPoint x="1020" y="320" />
              <mxPoint x="700" y="370" />
              <mxPoint x="790" y="400" />
              <mxPoint x="950" y="420" />
              <mxPoint x="1020" y="460" />
            </Array>
          </mxGeometry>
        </mxCell>
        <mxCell id="COsfoFzEx6H1PLmdCbzJ-56" value="Ibexa DXP&lt;br&gt;OAuth 2 Client" style="rounded=1;whiteSpace=wrap;html=1;horizontal=1;verticalAlign=top;" vertex="1" parent="1">
          <mxGeometry x="120" y="290" width="120" height="180" as="geometry" />
        </mxCell>
        <mxCell id="COsfoFzEx6H1PLmdCbzJ-57" value="Resource&lt;br&gt;Server" style="shape=cylinder3;whiteSpace=wrap;html=1;boundedLbl=1;backgroundOutline=1;size=15;" vertex="1" parent="1">
          <mxGeometry x="140" y="390" width="80" height="70" as="geometry" />
        </mxCell>
        <mxCell id="COsfoFzEx6H1PLmdCbzJ-58" value="Internal users&lt;br&gt;(Resource owners)" style="shape=cylinder3;whiteSpace=wrap;html=1;boundedLbl=1;backgroundOutline=1;size=15;" vertex="1" parent="1">
          <mxGeometry x="140" y="330" width="80" height="80" as="geometry" />
        </mxCell>
        <mxCell id="COsfoFzEx6H1PLmdCbzJ-59" value="3rd party&lt;br&gt;OAuth 2 Server" style="rounded=0;whiteSpace=wrap;html=1;" vertex="1" parent="1">
          <mxGeometry x="460" y="350" width="80" height="60" as="geometry" />
        </mxCell>
        <mxCell id="COsfoFzEx6H1PLmdCbzJ-60" value="" style="endArrow=classic;html=1;rounded=0;exitX=1;exitY=0.25;exitDx=0;exitDy=0;curved=1;entryX=0;entryY=0;entryDx=0;entryDy=45;entryPerimeter=0;" edge="1" parent="1" source="COsfoFzEx6H1PLmdCbzJ-56" target="COsfoFzEx6H1PLmdCbzJ-57">
          <mxGeometry width="50" height="50" relative="1" as="geometry">
            <mxPoint x="160" y="620" as="sourcePoint" />
            <mxPoint x="90" y="400" as="targetPoint" />
            <Array as="points">
              <mxPoint x="370" y="310" />
              <mxPoint x="510" y="390" />
              <mxPoint x="310" y="330" />
              <mxPoint x="90" y="400" />
            </Array>
          </mxGeometry>
        </mxCell>
        <mxCell id="COsfoFzEx6H1PLmdCbzJ-61" value="Authenticate user" style="text;html=1;align=center;verticalAlign=middle;whiteSpace=wrap;rounded=0;" vertex="1" parent="1">
          <mxGeometry x="274" y="342" width="100" height="30" as="geometry" />
        </mxCell>
        <mxCell id="COsfoFzEx6H1PLmdCbzJ-62" value="Request user authentication" style="text;html=1;align=center;verticalAlign=middle;whiteSpace=wrap;rounded=0;" vertex="1" parent="1">
          <mxGeometry x="308" y="294" width="60" height="30" as="geometry" />
        </mxCell>
        <mxCell id="COsfoFzEx6H1PLmdCbzJ-63" value="&lt;p style=&quot;line-height: 160%;&quot;&gt;Load an internal user&lt;br&gt;Access resource&lt;/p&gt;" style="text;html=1;align=right;verticalAlign=middle;whiteSpace=wrap;rounded=0;" vertex="1" parent="1">
          <mxGeometry x="-30" y="397" width="150" height="30" as="geometry" />
        </mxCell>
        <mxCell id="COsfoFzEx6H1PLmdCbzJ-64" value="" style="endArrow=classic;html=1;rounded=0;exitX=1.017;exitY=0.211;exitDx=0;exitDy=0;exitPerimeter=0;entryX=0;entryY=0.25;entryDx=0;entryDy=0;curved=1;" edge="1" parent="1" source="COsfoFzEx6H1PLmdCbzJ-28" target="COsfoFzEx6H1PLmdCbzJ-32">
          <mxGeometry width="50" height="50" relative="1" as="geometry">
            <mxPoint x="560" y="290" as="sourcePoint" />
            <mxPoint x="610" y="240" as="targetPoint" />
            <Array as="points">
              <mxPoint x="350" y="88" />
            </Array>
          </mxGeometry>
        </mxCell>
        <mxCell id="COsfoFzEx6H1PLmdCbzJ-65" value="" style="endArrow=classic;html=1;rounded=0;exitX=0;exitY=0.5;exitDx=0;exitDy=0;entryX=1;entryY=0;entryDx=0;entryDy=52.5;entryPerimeter=0;curved=1;" edge="1" parent="1" source="COsfoFzEx6H1PLmdCbzJ-32" target="COsfoFzEx6H1PLmdCbzJ-30">
          <mxGeometry width="50" height="50" relative="1" as="geometry">
            <mxPoint x="560" y="290" as="sourcePoint" />
            <mxPoint x="610" y="240" as="targetPoint" />
            <Array as="points">
              <mxPoint x="340" y="160" />
            </Array>
          </mxGeometry>
        </mxCell>
        <mxCell id="COsfoFzEx6H1PLmdCbzJ-66" value="" style="endArrow=classic;html=1;rounded=0;exitX=0;exitY=0;exitDx=0;exitDy=52.5;exitPerimeter=0;entryX=0;entryY=0.5;entryDx=0;entryDy=0;entryPerimeter=0;curved=1;" edge="1" parent="1" source="COsfoFzEx6H1PLmdCbzJ-30" target="COsfoFzEx6H1PLmdCbzJ-29">
          <mxGeometry width="50" height="50" relative="1" as="geometry">
            <mxPoint x="560" y="290" as="sourcePoint" />
            <mxPoint x="610" y="240" as="targetPoint" />
            <Array as="points">
              <mxPoint x="120" y="160" />
            </Array>
          </mxGeometry>
        </mxCell>
        <mxCell id="COsfoFzEx6H1PLmdCbzJ-68" value="" style="html=1;verticalLabelPosition=bottom;align=center;labelBackgroundColor=#ffffff;verticalAlign=top;strokeWidth=2;strokeColor=#000000;shadow=0;dashed=0;shape=mxgraph.ios7.icons.location;" vertex="1" parent="1">
          <mxGeometry x="168" y="20" width="24" height="30" as="geometry" />
        </mxCell>
        <mxCell id="COsfoFzEx6H1PLmdCbzJ-69" value="" style="html=1;verticalLabelPosition=bottom;align=center;labelBackgroundColor=#ffffff;verticalAlign=top;strokeWidth=2;strokeColor=#000000;shadow=0;dashed=0;shape=mxgraph.ios7.icons.location;" vertex="1" parent="1">
          <mxGeometry x="688" y="80" width="24" height="30" as="geometry" />
        </mxCell>
        <mxCell id="COsfoFzEx6H1PLmdCbzJ-70" value="Resource owner" style="text;html=1;align=left;verticalAlign=middle;whiteSpace=wrap;rounded=0;fontStyle=1" vertex="1" parent="1">
          <mxGeometry x="193" y="20" width="97" height="30" as="geometry" />
        </mxCell>
        <mxCell id="COsfoFzEx6H1PLmdCbzJ-71" value="Resource owner" style="text;html=1;align=right;verticalAlign=middle;whiteSpace=wrap;rounded=0;fontStyle=1" vertex="1" parent="1">
          <mxGeometry x="590" y="80" width="98" height="30" as="geometry" />
        </mxCell>
        <mxCell id="COsfoFzEx6H1PLmdCbzJ-74" value="Ibexa DXP&lt;br&gt;OAuth 2 Server" style="rounded=1;whiteSpace=wrap;html=1;horizontal=1;verticalAlign=top;" vertex="1" parent="1">
          <mxGeometry x="960" y="610" width="120" height="180" as="geometry" />
        </mxCell>
        <mxCell id="COsfoFzEx6H1PLmdCbzJ-75" value="Authorization&lt;br&gt;Server" style="rounded=0;whiteSpace=wrap;html=1;" vertex="1" parent="1">
          <mxGeometry x="970" y="650" width="100" height="40" as="geometry" />
        </mxCell>
        <mxCell id="COsfoFzEx6H1PLmdCbzJ-76" value="Resource&lt;br&gt;Server" style="shape=cylinder3;whiteSpace=wrap;html=1;boundedLbl=1;backgroundOutline=1;size=15;" vertex="1" parent="1">
          <mxGeometry x="980" y="700" width="80" height="80" as="geometry" />
        </mxCell>
        <mxCell id="COsfoFzEx6H1PLmdCbzJ-77" value="3rd party&lt;br&gt;OAuth 2 Client" style="rounded=0;whiteSpace=wrap;html=1;" vertex="1" parent="1">
          <mxGeometry x="660" y="670" width="80" height="60" as="geometry" />
        </mxCell>
        <mxCell id="COsfoFzEx6H1PLmdCbzJ-78" value="" style="endArrow=classic;html=1;rounded=0;exitX=1;exitY=0.25;exitDx=0;exitDy=0;entryX=0;entryY=0.25;entryDx=0;entryDy=0;curved=1;" edge="1" parent="1" source="COsfoFzEx6H1PLmdCbzJ-77" target="COsfoFzEx6H1PLmdCbzJ-75">
          <mxGeometry width="50" height="50" relative="1" as="geometry">
            <mxPoint x="680" y="580" as="sourcePoint" />
            <mxPoint x="730" y="530" as="targetPoint" />
            <Array as="points">
              <mxPoint x="850" y="630" />
            </Array>
          </mxGeometry>
        </mxCell>
        <mxCell id="COsfoFzEx6H1PLmdCbzJ-79" value="Request token" style="text;html=1;align=center;verticalAlign=middle;whiteSpace=wrap;rounded=0;rotation=-5;" vertex="1" parent="1">
          <mxGeometry x="810" y="630" width="80" height="30" as="geometry" />
        </mxCell>
        <mxCell id="COsfoFzEx6H1PLmdCbzJ-80" value="" style="endArrow=classic;html=1;rounded=0;exitX=0;exitY=0.75;exitDx=0;exitDy=0;entryX=1.013;entryY=0.367;entryDx=0;entryDy=0;curved=1;entryPerimeter=0;" edge="1" parent="1" source="COsfoFzEx6H1PLmdCbzJ-75" target="COsfoFzEx6H1PLmdCbzJ-77">
          <mxGeometry width="50" height="50" relative="1" as="geometry">
            <mxPoint x="680" y="660" as="sourcePoint" />
            <mxPoint x="730" y="610" as="targetPoint" />
            <Array as="points">
              <mxPoint x="880" y="670" />
            </Array>
          </mxGeometry>
        </mxCell>
        <mxCell id="COsfoFzEx6H1PLmdCbzJ-81" value="Provide token" style="text;html=1;align=center;verticalAlign=middle;whiteSpace=wrap;rounded=0;rotation=-5;" vertex="1" parent="1">
          <mxGeometry x="815" y="655" width="80" height="30" as="geometry" />
        </mxCell>
        <mxCell id="COsfoFzEx6H1PLmdCbzJ-82" value="" style="endArrow=classic;html=1;rounded=0;exitX=1;exitY=0.617;exitDx=0;exitDy=0;entryX=0;entryY=0.5;entryDx=0;entryDy=0;entryPerimeter=0;curved=1;exitPerimeter=0;" edge="1" parent="1" source="COsfoFzEx6H1PLmdCbzJ-77" target="COsfoFzEx6H1PLmdCbzJ-76">
          <mxGeometry width="50" height="50" relative="1" as="geometry">
            <mxPoint x="680" y="660" as="sourcePoint" />
            <mxPoint x="940" y="780" as="targetPoint" />
            <Array as="points">
              <mxPoint x="860" y="710" />
            </Array>
          </mxGeometry>
        </mxCell>
        <mxCell id="COsfoFzEx6H1PLmdCbzJ-83" value="Request resource&lt;br&gt;with token" style="text;html=1;align=center;verticalAlign=middle;whiteSpace=wrap;rounded=0;rotation=10;" vertex="1" parent="1">
          <mxGeometry x="826" y="706" width="120" height="30" as="geometry" />
        </mxCell>
        <mxCell id="COsfoFzEx6H1PLmdCbzJ-84" value="" style="endArrow=classic;html=1;rounded=0;exitX=0;exitY=0;exitDx=0;exitDy=52.5;exitPerimeter=0;curved=1;" edge="1" parent="1" source="COsfoFzEx6H1PLmdCbzJ-76">
          <mxGeometry width="50" height="50" relative="1" as="geometry">
            <mxPoint x="680" y="660" as="sourcePoint" />
            <mxPoint x="740" y="715" as="targetPoint" />
            <Array as="points">
              <mxPoint x="860" y="780" />
            </Array>
          </mxGeometry>
        </mxCell>
        <mxCell id="COsfoFzEx6H1PLmdCbzJ-85" value="Provide resource to valid token" style="text;html=1;align=center;verticalAlign=middle;whiteSpace=wrap;rounded=0;rotation=10;" vertex="1" parent="1">
          <mxGeometry x="808" y="741" width="95" height="30" as="geometry" />
        </mxCell>
        <mxCell id="COsfoFzEx6H1PLmdCbzJ-86" value="Ibexa DXP&lt;br&gt;OAuth 2 Client" style="rounded=1;whiteSpace=wrap;html=1;horizontal=1;verticalAlign=top;" vertex="1" parent="1">
          <mxGeometry x="120" y="610" width="120" height="180" as="geometry" />
        </mxCell>
        <mxCell id="COsfoFzEx6H1PLmdCbzJ-87" value="Resource&lt;br&gt;Server" style="shape=cylinder3;whiteSpace=wrap;html=1;boundedLbl=1;backgroundOutline=1;size=15;" vertex="1" parent="1">
          <mxGeometry x="140" y="710" width="80" height="70" as="geometry" />
        </mxCell>
        <mxCell id="COsfoFzEx6H1PLmdCbzJ-88" value="Users&lt;br&gt;(Resource owners)" style="shape=cylinder3;whiteSpace=wrap;html=1;boundedLbl=1;backgroundOutline=1;size=15;" vertex="1" parent="1">
          <mxGeometry x="140" y="650" width="80" height="80" as="geometry" />
        </mxCell>
        <mxCell id="COsfoFzEx6H1PLmdCbzJ-89" value="3rd party&lt;br&gt;OAuth 2 Server" style="rounded=0;whiteSpace=wrap;html=1;" vertex="1" parent="1">
          <mxGeometry x="460" y="670" width="80" height="60" as="geometry" />
        </mxCell>
        <mxCell id="COsfoFzEx6H1PLmdCbzJ-90" value="Authenticate user" style="text;html=1;align=center;verticalAlign=middle;whiteSpace=wrap;rounded=0;rotation=-5;" vertex="1" parent="1">
          <mxGeometry x="343" y="703" width="100" height="30" as="geometry" />
        </mxCell>
        <mxCell id="COsfoFzEx6H1PLmdCbzJ-91" value="Request user authentication" style="text;html=1;align=center;verticalAlign=middle;whiteSpace=wrap;rounded=0;rotation=15;" vertex="1" parent="1">
          <mxGeometry x="374" y="638" width="60" height="30" as="geometry" />
        </mxCell>
        <mxCell id="COsfoFzEx6H1PLmdCbzJ-92" value="" style="endArrow=classic;startArrow=classic;html=1;rounded=0;entryX=1.025;entryY=0.588;entryDx=0;entryDy=0;entryPerimeter=0;exitX=1;exitY=0.5;exitDx=0;exitDy=0;curved=1;" edge="1" parent="1" source="COsfoFzEx6H1PLmdCbzJ-75" target="COsfoFzEx6H1PLmdCbzJ-76">
          <mxGeometry width="50" height="50" relative="1" as="geometry">
            <mxPoint x="680" y="660" as="sourcePoint" />
            <mxPoint x="730" y="610" as="targetPoint" />
            <Array as="points">
              <mxPoint x="1080" y="710" />
            </Array>
          </mxGeometry>
        </mxCell>
        <mxCell id="COsfoFzEx6H1PLmdCbzJ-93" value="Validate token" style="text;html=1;align=left;verticalAlign=middle;whiteSpace=wrap;rounded=0;" vertex="1" parent="1">
          <mxGeometry x="1080" y="690" width="80" height="30" as="geometry" />
        </mxCell>
        <mxCell id="COsfoFzEx6H1PLmdCbzJ-94" value="" style="endArrow=classic;html=1;rounded=0;exitX=1.017;exitY=0.211;exitDx=0;exitDy=0;exitPerimeter=0;entryX=0;entryY=0.25;entryDx=0;entryDy=0;curved=1;" edge="1" parent="1" source="COsfoFzEx6H1PLmdCbzJ-86" target="COsfoFzEx6H1PLmdCbzJ-89">
          <mxGeometry width="50" height="50" relative="1" as="geometry">
            <mxPoint x="560" y="850" as="sourcePoint" />
            <mxPoint x="610" y="800" as="targetPoint" />
            <Array as="points">
              <mxPoint x="350" y="648" />
            </Array>
          </mxGeometry>
        </mxCell>
        <mxCell id="COsfoFzEx6H1PLmdCbzJ-95" value="" style="endArrow=classic;html=1;rounded=0;exitX=0;exitY=0.5;exitDx=0;exitDy=0;entryX=1;entryY=0;entryDx=0;entryDy=52.5;entryPerimeter=0;curved=1;" edge="1" parent="1" source="COsfoFzEx6H1PLmdCbzJ-89" target="COsfoFzEx6H1PLmdCbzJ-88">
          <mxGeometry width="50" height="50" relative="1" as="geometry">
            <mxPoint x="560" y="850" as="sourcePoint" />
            <mxPoint x="610" y="800" as="targetPoint" />
            <Array as="points">
              <mxPoint x="340" y="720" />
            </Array>
          </mxGeometry>
        </mxCell>
        <mxCell id="COsfoFzEx6H1PLmdCbzJ-96" value="" style="endArrow=classic;html=1;rounded=0;exitX=0;exitY=0;exitDx=0;exitDy=52.5;exitPerimeter=0;entryX=0;entryY=0.5;entryDx=0;entryDy=0;entryPerimeter=0;curved=1;" edge="1" parent="1" source="COsfoFzEx6H1PLmdCbzJ-88" target="COsfoFzEx6H1PLmdCbzJ-87">
          <mxGeometry width="50" height="50" relative="1" as="geometry">
            <mxPoint x="560" y="850" as="sourcePoint" />
            <mxPoint x="610" y="800" as="targetPoint" />
            <Array as="points">
              <mxPoint x="120" y="720" />
            </Array>
          </mxGeometry>
        </mxCell>
        <mxCell id="COsfoFzEx6H1PLmdCbzJ-97" value="" style="html=1;verticalLabelPosition=bottom;align=center;labelBackgroundColor=#ffffff;verticalAlign=top;strokeWidth=2;strokeColor=#000000;shadow=0;dashed=0;shape=mxgraph.ios7.icons.location;" vertex="1" parent="1">
          <mxGeometry y="566" width="24" height="30" as="geometry" />
        </mxCell>
        <mxCell id="COsfoFzEx6H1PLmdCbzJ-98" value="" style="html=1;verticalLabelPosition=bottom;align=center;labelBackgroundColor=#ffffff;verticalAlign=top;strokeWidth=2;strokeColor=#000000;shadow=0;dashed=0;shape=mxgraph.ios7.icons.location;" vertex="1" parent="1">
          <mxGeometry x="688" y="580" width="24" height="30" as="geometry" />
        </mxCell>
        <mxCell id="COsfoFzEx6H1PLmdCbzJ-99" value="Resource owner" style="text;html=1;align=left;verticalAlign=middle;whiteSpace=wrap;rounded=0;fontStyle=1" vertex="1" parent="1">
          <mxGeometry x="25" y="566" width="97" height="30" as="geometry" />
        </mxCell>
        <mxCell id="COsfoFzEx6H1PLmdCbzJ-100" value="Resource owner" style="text;html=1;align=right;verticalAlign=middle;whiteSpace=wrap;rounded=0;fontStyle=1" vertex="1" parent="1">
          <mxGeometry x="712" y="580" width="98" height="30" as="geometry" />
        </mxCell>
        <mxCell id="COsfoFzEx6H1PLmdCbzJ-104" value="&lt;p style=&quot;line-height: 160%;&quot;&gt;Load an internal user&lt;br&gt;Access resource&lt;/p&gt;" style="text;html=1;align=right;verticalAlign=middle;whiteSpace=wrap;rounded=0;" vertex="1" parent="1">
          <mxGeometry x="-30" y="706" width="150" height="30" as="geometry" />
        </mxCell>
      </root>
    </mxGraphModel>
  </diagram>
</mxfile>
